<?xml version="1.0" encoding="utf-8"?>
<!-- Generator: Adobe Illustrator 22.0.1, SVG Export Plug-In . SVG Version: 6.00 Build 0)  -->
<svg version="1.1" id="Layer_1" xmlns="http://www.w3.org/2000/svg" xmlns:xlink="http://www.w3.org/1999/xlink" x="0px" y="0px"
	 viewBox="0 0 1920 3040" style="enable-background:new 0 0 1920 3040;" xml:space="preserve">
<style type="text/css">
	.st0{fill:none;stroke:#E9A22E;stroke-width:5;stroke-miterlimit:10;}
</style>
<path class="st0" d="M944.9,184.3c-76.7,76.1-77.2,199.9-1.2,276.6l0,0c55.6,56,55.8,146.4,0.4,202.6l-14,14.2
	c-69.3,70.5-68.8,183.6,1.1,253.5l0,0c60.3,60.3,60.3,158.2,0,218.5l0,0c-72.4,72.4-73,189.6-1.4,262.8l0,0
	c61.5,62.7,61.5,163.1,0,225.8l0,0c-71.2,72.7-69.4,189.6,4.1,260l0,0c58.5,56,59.4,149.1,2.2,206.4l0,0
	c-74.9,74.9-74.9,196.4,0,271.4l0,0c57.6,57.6,57.6,151,0,208.6l0,0c-74.9,74.9-74.9,196.4,0,271.4"/>
</svg>
